<mxfile host="app.diagrams.net" modified="2023-08-08T15:58:28.422Z" agent="Mozilla/5.0 (Windows NT 10.0; Win64; x64) AppleWebKit/537.36 (KHTML, like Gecko) Chrome/115.0.0.0 Safari/537.36" version="21.6.7" etag="6OLeQ3jYxJ0zguEOLq7b" type="github">
  <diagram name="Page-1" id="RKyPNBM3HgYeOPSSIwJ7">
    <mxGraphModel>
      <root>
        <mxCell id="0" />
        <mxCell id="1" parent="0" />
      </root>
    </mxGraphModel>
  </diagram>
</mxfile>
